<svg xmlns="http://www.w3.org/2000/svg" aria-hidden="true" style="position:absolute;width:0;height:0;overflow:hidden">
    <defs>
        <symbol id="icon-Company-Logo" viewBox="0 0 75 32">
            <path fill="#353c3a"
                d="M32.084.664c-.413.276-.714.624-.985 1.035-1 .017-1.941.303-2.651 1.041-.677.703-.908 1.556-.876 2.512l.003.072c.126.858.472 1.56 1.171 2.09.165.125.534.307.908.493.483.239.978.484 1.064.619.295.422 1.083.668 1.572.757.765.14 1.447.077 2.183-.141 1.049 1.627 1.492 3.335 1.735 5.242l-.087.161c-.219-.192-.399-.489-.578-.783a5 5 0 0 0-.392-.585c-1.395-1.693-3.516-2.891-5.761-2.765-.444.025-1.467.128-1.813.425-.052.411.397 1.059.653 1.387 1.497 1.916 3.931 2.387 6.196 2.826l.667.13c.174.033.421.08.464.248l-.023.061c-2.312-.389-4.727-.108-6.676 1.289-1.666 1.194-2.623 3.08-2.946 5.074-.383 2.368.017 5.017 1.442 6.988 1.152 1.594 2.854 2.605 4.791 2.911 2.141.338 4.468-.059 6.237-1.355 1.679-1.23 2.63-3.109 2.938-5.137.371-2.441.03-5.036-1.465-7.056-.645-.873-1.407-1.466-2.335-2.013l-.06-.034c-.114-.063-.221-.122-.252-.265 2.081-.712 4.138-1.569 5.795-3.06.804-.723 2.204-2.408 2.261-3.474-.094-.151-.124-.178-.297-.229-.36-.106-.812-.12-1.19-.128-2.009-.043-3.705.875-4.954 2.413-.074.091-.184.263-.307.454-.24.373-.527.82-.688.892l-.067.027c.134-.554.312-1.103.49-1.651.13-.4.259-.8.372-1.202l.059-.046c1.418-1.126 2.433-2.822 2.631-4.635.147-1.35-.172-2.53-1.022-3.593q-.211.108-.413.232c-1.204.756-1.852 2.218-2.142 3.563-.291 1.35-.358 3.3.418 4.5a254 254 0 0 0-1.421 4.617c-.188-1.987-.777-3.98-1.817-5.685q.254-.231.468-.498c.596-.734 1.306-2.142 1.207-3.103-.109-.139-.229-.791-.332-1.346-.058-.313-.11-.595-.151-.737a13 13 0 0 0-.784-2.005c-.302-.463-.749-.834-1.3-.956-.683-.152-1.365.041-1.937.423zm.718 15.329c.965-.095 1.855.001 2.694.529 1.354.852 2.01 2.448 2.35 3.947.584 2.574.581 6.757-.898 9.055-.602.935-1.379 1.391-2.443 1.622-.993.107-1.939.008-2.79-.553-1.398-.922-2.012-2.675-2.335-4.245-.542-2.63-.616-6.412.943-8.742.624-.932 1.4-1.39 2.478-1.611z"
                style="fill:var(--color1, #353c3a)" />
            <path fill="#eae9e8"
                d="M31.098 1.698c.271-.411.572-.759.985-1.035.572-.382 1.254-.574 1.937-.423.551.122.998.493 1.3.956-.943.273-1.265.636-1.812 1.447-.144.395-.267.808-.302 1.23.664.585 1.09 1.243 1.149 2.149.007.108.015.128-.044.216l-.241-.071c-.215.157-.269.424-.309.675a8 8 0 0 0-.073 1.384 4.7 4.7 0 0 0-1.617-.191c-.474.117-.922.254-1.354.49-.152-.24-1.593-.825-1.972-1.112-.699-.529-1.045-1.232-1.171-2.09l-.003-.072c-.032-.956.199-1.809.876-2.512.71-.738 1.651-1.024 2.651-1.041"
                style="fill:var(--color2, #eae9e8)" />
            <path fill="#db8778"
                d="M31.098 1.698c.271-.411.572-.759.985-1.035.572-.382 1.254-.574 1.937-.423.551.122.998.493 1.3.956-.943.273-1.265.636-1.812 1.447-.144.395-.267.808-.302 1.23l-.662-.267c-.264.007-.785-.046-1.011.068l-.292.142c-.113.102-.244.257-.373.331l-.245.422-.169.01c-.787-.014-1.531.072-2.251.412-.204.096-.418.267-.628.331l-.003-.072c-.032-.956.199-1.809.876-2.512.71-.738 1.651-1.024 2.651-1.041z"
                style="fill:var(--color3, #db8778)" />
            <path fill="#353c3a"
                d="M32.545 3.606c.121-.323.222-.72.471-.967.225-.091.27-.061.493.004-.144.395-.267.808-.302 1.23zM31.241 3.817c-.238-.164-.512-.331-.704-.549a.66.66 0 0 1-.182-.484l.125-.062c.527.116.752.547 1.053.952zM30.453 4.58c-.099-.012-.211-.021-.307-.049-.161-.047-.187-.114-.248-.252.069-.096.085-.123.194-.171.263-.116.517-.057.775.039l-.245.422-.169.01zM31.767 2.127a.5.5 0 0 1 .232.167c.226.331.188.992.147 1.376l-.313-.093a.5.5 0 0 1-.103-.143c-.185-.41-.108-.899.037-1.307"
                style="fill:var(--color1, #353c3a)" />
            <path fill="#ebb19f"
                d="m30.454 4.58.169-.01c-.206.781-.318 1.571.114 2.304.309.524.809.876 1.334 1.16-.474.117-.922.254-1.354.49-.152-.24-1.593-.825-1.972-1.112-.699-.529-1.045-1.232-1.171-2.09.21-.064.424-.235.628-.331.721-.34 1.464-.426 2.251-.412z"
                style="fill:var(--color4, #ebb19f)" />
            <path fill="#97a898"
                d="M37.758 12.786q.033-.013.067-.027c.243-.109.777-1.077.995-1.346C40.068 9.875 41.764 8.957 43.774 9c.378.008.831.022 1.19.128.174.051.203.078.297.229-.057 1.066-1.458 2.751-2.261 3.474-1.656 1.49-3.714 2.348-5.795 3.06 1.081-1.369 2.345-2.712 3.698-3.812.471-.383 2.458-1.599 2.602-1.849-.064-.042-.073-.068-.152-.057-1.797.261-5.258 3.953-6.333 5.349.136-.95.37-1.848.738-2.736M35.531 15.491l.024-.061c-.047-.184-.34-.223-.512-.257-2.429-.485-5.18-.855-6.814-2.947-.256-.327-.706-.976-.653-1.387.347-.297 1.37-.4 1.813-.425 2.246-.126 4.366 1.071 5.761 2.765.335.405.596 1.038.97 1.367l.087-.161c.038.227.054.406.021.636-.27-.086-.696-.641-.95-.841-1.431-1.135-3.942-2.678-5.836-2.623l-.049.067c.472.367 1.269.513 1.832.709 1.698.589 3.591 1.706 4.673 3.174l-.058.065c-.094-.021-.226-.034-.309-.08zM40.287 1.659c.85 1.062 1.169 2.243 1.022 3.593-.197 1.813-1.212 3.509-2.631 4.635l-.059.046c.328-1.618.571-3.323 1.052-4.899.105-.343.339-.962.165-1.288l-.121.049c-.74 1.172-1.115 4.623-1.566 6.159-.776-1.199-.709-3.149-.418-4.5.29-1.345.938-2.806 2.142-3.563q.202-.124.413-.232z"
                style="fill:var(--color5, #97a898)" />
            <path fill="#ebb19f"
                d="M33.509 2.644c.547-.811.869-1.174 1.812-1.447.31.655.582 1.307.784 2.005.114.393.313 1.865.483 2.083-.603.122-1.021.446-1.356.956a6 6 0 0 0-.468.92c-.149-.276-.391-.617-.451-.923.059-.088.051-.108.044-.216-.059-.906-.485-1.564-1.149-2.149.035-.421.158-.835.302-1.23z"
                style="fill:var(--color4, #ebb19f)" />
            <path fill="#353c3a"
                d="M62.269 15.363a16 16 0 0 0-1.722.062c-1.393.281-3.067.756-3.9 2.009-.416.626-.601 1.398-.454 2.14.109.545.401 1.044.873 1.35.437.283 1.064.413 1.575.298.424-.095.785-.37 1.014-.737.26-.416.335-.944.223-1.42-.069-.294-.27-.525-.465-.749-.324-.373-.632-.728-.296-1.322.274-.483.922-.77 1.437-.889.795-.184 1.746-.128 2.449.318.687.436 1.071 1.153 1.241 1.933.21.968.259 2.379-.305 3.224-.512.767-1.813 1.068-3.275 1.406-2.095.485-4.521 1.046-5.424 3.163-.347.814-.243 1.649-.165 2.278.044.35.079.636.025.818l.029.038c.113.152.205.317.296.481q.098.181.209.356c.628.965 1.475 1.385 2.594 1.557 1.69.26 3.563-.111 4.949-1.137.331-.245.943-.796 1.008-1.221l.017.022.007.01c.203.304.275.607.343.893.143.601.267 1.122 1.544 1.393.958.204 2.442.101 3.292-.465.174-.116.353-.295.387-.509.005-.028.005-.049.005-.071l-.001-.06-.037-.036c-.063-.062-.075-.073-.19-.071-.169.004-.341.035-.514.066-.439.078-.877.157-1.243-.201-.544-.531-.533-1.761-.527-2.55l.001-.174q.02-2.559.011-5.117c-.007-3.856-.13-6.942-5.009-7.087zm1.744 7.12.21-.006.063.088c.061.491.043.984.026 1.477-.008.226-.016.452-.016.677-.001.298.009.6.02.905.024.729.049 1.47-.072 2.173a3.1 3.1 0 0 1-.427 1.119c-.471.75-1.248 1.216-2.103 1.399-1.012.216-1.807-.008-2.658-.554l-.15-.264c-.498-.873-.795-1.395-.695-2.561.189-2.202 2.377-3.02 4.174-3.691l.235-.088.221-.08h.001c.377-.135.852-.304 1.11-.536l.025-.023z"
                style="fill:var(--color1, #353c3a)" />
            <path fill="#eae9e8" d="m62.55 23.183-.067.025z" style="fill:var(--color2, #eae9e8)" />
            <path fill="#353c3a"
                d="M11.943 6.668a5.5 5.5 0 0 1 1.1.009 5.17 5.17 0 0 1 3.526 1.862c.587.725.929 1.604.822 2.544-.063.55-.268 1.082-.714 1.432a2.48 2.48 0 0 1-1.761.486 1.86 1.86 0 0 1-1.257-.735c-.275-.36-.395-.896-.327-1.341.148-.979 1.173-1.069 1.824-1.563a.66.66 0 0 0 .28-.482c-.04-.251-.142-.415-.311-.596-.626-.675-1.58-.986-2.482-1.008-.778-.02-1.547.188-2.112.745-1.348 1.332-.978 5.534-.974 7.357.902.008 6.069-.151 6.534.192.046.152.026.24-.013.391-.354.242-5.622.114-6.526.127l.007 5.214c.465.001.932.007 1.396-.013 3.271-.137 2.292-2.498 3.078-3.28.082-.082.125-.059.239-.059.228.302.125 5.947.125 6.794a7 7 0 0 1-.028.591l-.14.115c-.182.002-.227.03-.369-.091-.111-.916-.374-2.078-1.057-2.734-.848-.815-2.162-.644-3.243-.63-.006 1.556-.35 7.225.647 8.306.546.592 1.546.513 1.93.995l-.017.105c-.214.118-.476.125-.715.135-.687.028-6.862.013-7.201-.09-.068-.021-.042-.025-.112-.016l-.039.009-.034-.081c.093-.348 1.507-.623 1.911-1.045.886-.925.565-6.711.556-8.306-.623-.01-1.868.208-2.336-.176-.087-.17-.111-.201-.091-.388.345-.309 1.93-.161 2.421-.163q.012-2.609-.004-5.216c-.756.014-1.77.147-2.456-.215l-.018-.217c.472-.394 1.865-.249 2.479-.244-.027-2.258.005-4.947 1.503-6.797.991-1.224 2.442-1.764 3.961-1.922zM22.892 5.524l.085.017c.115.135.116.208.125.38.097 1.871-.007 3.802-.008 5.68l-.003 11.879c0 1.426-.205 5.262.248 6.382.503 1.243 1.679.85 2.058 1.434l-.059.156c-.343.134-6.243.062-7.195.091-.075 0-.06.008-.117-.014-.144-.057-.141-.114-.201-.248.143-.49 1.192-.292 1.619-.768.371-.412.515-.961.583-1.497.141-1.112.097-2.254.097-3.373l-.004-4.711-.003-6.746c.002-1.498.04-3.004-.032-4.5-.079-1.645-.023-1.952-1.65-2.455-.164-.051-.398-.106-.52-.234-.077-.081-.054-.108-.056-.213l.068.009c.129-.149.719-.181.926-.208 1.413-.18 2.759-.408 4.039-1.059zM46.88 15.273l.221.028c.018.028.046.068.059.1.165.43.074 3.306-.092 3.697.237-.207.34-.498.481-.773.499-.97 1.116-1.821 2.112-2.329 1.035-.529 2.378-.805 3.501-.427a2.4 2.4 0 0 1 1.413 1.235c.298.62.357 1.35.117 2-.196.528-.588 1-1.106 1.236-.49.224-1.034.205-1.531.006-.501-.2-.926-.559-1.131-1.067-.394-.977.136-1.331.441-2.135.06-.156.049-.204-.02-.349-.21-.101-.429-.058-.646-.006-2.761.662-3.409 3.926-3.465 6.361-.014.6.008 2.703.008 2.703s-.023 2.021 0 2.602c.055 1.411.152 2.367 1.661 2.82.221.066.501.107.67.273.045.044.023.124.022.184l-.051.039c-.093.064-7.12.089-7.509-.009l-.047-.162c.162-.613 1.343-.306 1.798-.885.226-.288.314-.664.365-1.02.277-1.907.143-3.968.139-5.899-.004-1.6.099-3.304-.119-4.884-.302-2.199-1.103-1.167-2.012-1.859-.079-.174-.067-.192-.024-.381 1.549-.293 3.269-.306 4.693-1.07z"
                style="fill:var(--color1, #353c3a)" />
        </symbol>
        <symbol id="icon-Facebook" viewBox="0 0 32 32">
            <path
                d="M29.333 16.405C29.333 8.996 23.364 2.99 16 2.99S2.667 8.996 2.667 16.405c0 6.696 4.876 12.245 11.25 13.252v-9.374h-3.385v-3.878h3.385V13.45c0-3.362 1.991-5.219 5.036-5.219 1.459 0 2.985.262 2.985.262v3.301h-1.681c-1.656 0-2.173 1.034-2.173 2.095v2.516h3.698l-.591 3.878h-3.107v9.374c6.374-1.006 11.25-6.556 11.25-13.252z" />
        </symbol>
        <symbol id="icon-Flower" viewBox="0 0 36 32">
            <path fill="#353c3a"
                d="M7.211 3.076C7.765 2.239 8.38 1.529 9.223.967c1.169-.779 2.561-1.171 3.956-.862 1.124.249 2.039 1.005 2.655 1.949.634 1.335 1.189 2.664 1.601 4.086.084.289.191.864.309 1.502.21 1.13.456 2.459.678 2.743.201 1.957-1.249 4.827-2.466 6.323A9 9 0 0 1 15 17.722c2.124 3.475 3.327 7.537 3.712 11.586a532 532 0 0 1 2.903-9.408c-1.584-2.444-1.448-6.418-.853-9.169.592-2.74 1.916-5.719 4.375-7.261a12 12 0 0 1 .844-.473c1.736 2.165 2.388 4.571 2.087 7.322-.402 3.695-2.476 7.15-5.373 9.445l-.12.095c-.23.818-.495 1.634-.76 2.45-.363 1.118-.726 2.237-1.001 3.365l.048-.019q.044-.017.089-.036c.328-.147.916-1.059 1.405-1.818.251-.39.477-.739.628-.925 2.55-3.134 6.015-5.006 10.119-4.917.772.016 1.697.046 2.431.262.354.104.414.16.607.467-.117 2.172-2.978 5.605-4.619 7.079-3.383 3.037-7.587 4.784-11.837 6.235l-.464-.103-2.253-.5-.704-.213.048-.125c-.088-.342-.593-.438-.947-.505l-.005-.001-.093-.018a166 166 0 0 0-1.257-.245l-.007-.001c-4.626-.894-9.598-1.854-12.655-5.759-.522-.667-1.441-1.988-1.334-2.826.708-.604 2.797-.815 3.704-.866 4.587-.258 8.918 2.183 11.769 5.634.284.343.542.766.801 1.191.366.599.734 1.203 1.181 1.595l.177-.329c-.497-3.887-1.401-7.368-3.544-10.683-1.503.444-2.897.572-4.459.287-.998-.183-2.607-.685-3.21-1.544-.175-.276-1.185-.774-2.173-1.262-.766-.378-1.518-.749-1.856-1.004C.976 13.647.269 12.215.012 10.467l-.006-.147c-.065-1.947.407-3.686 1.79-5.119C3.247 3.698 5.169 3.115 7.211 3.08z"
                style="fill:var(--color1, #353c3a)" />
            <path fill="#eae9e8"
                d="M7.211 3.076C7.765 2.239 8.38 1.529 9.223.967c1.169-.779 2.561-1.171 3.956-.862 1.125.249 2.039 1.005 2.655 1.949-1.927.556-2.584 1.295-3.701 2.948-.294.805-.545 1.648-.617 2.506 1.355 1.192 2.226 2.533 2.347 4.379.014.221.031.262-.09.44l-.493-.145c-.439.32-.549.865-.631 1.376-.146.912-.167 1.896-.149 2.82a9.6 9.6 0 0 0-3.304-.39c-.969.239-1.883.518-2.765.999-.311-.489-3.255-1.682-4.028-2.266C.975 13.643.268 12.211.011 10.463l-.006-.147C-.06 8.369.412 6.63 1.795 5.197 3.246 3.694 5.167 3.111 7.21 3.076z"
                style="fill:var(--color2, #eae9e8)" />
            <path fill="#db8778"
                d="M7.211 3.076C7.765 2.239 8.38 1.529 9.223.967c1.169-.779 2.561-1.171 3.956-.862 1.125.249 2.039 1.005 2.655 1.949-1.927.556-2.584 1.295-3.701 2.948-.294.805-.545 1.648-.617 2.506l-1.353-.545c-.54.014-1.603-.094-2.066.139l-.596.289c-.23.209-.498.523-.763.675l-.5.861-.346.021c-1.608-.029-3.127.146-4.599.839-.416.196-.853.545-1.282.675l-.006-.147c-.065-1.947.407-3.686 1.79-5.119C3.246 3.693 5.167 3.11 7.21 3.075z"
                style="fill:var(--color3, #db8778)" />
            <path fill="#353c3a"
                d="M10.164 6.964c.246-.658.454-1.468.963-1.97.459-.185.551-.125 1.007.009-.294.805-.545 1.648-.617 2.506zM7.502 7.393c-.486-.333-1.045-.674-1.439-1.118-.255-.288-.389-.602-.371-.986l.256-.126c1.077.236 1.537 1.114 2.15 1.941zM5.893 8.949c-.203-.025-.431-.043-.627-.101-.328-.097-.381-.232-.506-.514.14-.196.174-.25.396-.348.538-.236 1.056-.116 1.583.08l-.5.861zM8.576 3.949c.182.078.36.172.475.34.461.675.384 2.022.3 2.804l-.64-.19a1 1 0 0 1-.21-.292c-.377-.835-.221-1.832.075-2.663z"
                style="fill:var(--color1, #353c3a)" />
            <path fill="#ebb19f"
                d="m5.894 8.949.346-.021c-.422 1.591-.649 3.201.234 4.696.63 1.067 1.652 1.786 2.724 2.365-.969.239-1.883.518-2.765.999-.311-.489-3.255-1.682-4.028-2.266C.977 13.644.27 12.212.013 10.464c.429-.13.866-.479 1.282-.675 1.472-.693 2.991-.868 4.599-.839z"
                style="fill:var(--color4, #ebb19f)" />
            <path fill="#97a898"
                d="M20.814 25.672q.069-.025.137-.055c.497-.222 1.587-2.196 2.033-2.743 2.55-3.134 6.014-5.006 10.119-4.917.772.016 1.697.046 2.431.262.354.104.414.16.607.467-.117 2.172-2.978 5.605-4.619 7.079-3.383 3.037-7.587 4.784-11.837 6.235 2.208-2.789 4.791-5.526 7.554-7.768.961-.78 5.02-3.259 5.315-3.768-.131-.085-.149-.139-.311-.116-3.67.533-10.74 8.055-12.936 10.9.278-1.937.755-3.766 1.508-5.576zM16.264 31.183l.048-.125c-.096-.375-.694-.454-1.045-.524-4.961-.989-10.581-1.742-13.919-6.006-.522-.667-1.441-1.988-1.334-2.826.708-.604 2.797-.815 3.704-.866 4.587-.258 8.918 2.183 11.769 5.634.683.826 1.218 2.115 1.982 2.786l.177-.329c.078.463.11.827.042 1.297-.551-.176-1.422-1.305-1.94-1.714-2.924-2.312-8.052-5.457-11.921-5.346l-.1.136c.964.749 2.592 1.046 3.742 1.444 3.468 1.2 7.335 3.476 9.545 6.469l-.119.133c-.192-.044-.463-.069-.631-.163M25.98 2.996c1.736 2.165 2.388 4.571 2.087 7.322-.402 3.695-2.476 7.15-5.373 9.445l-.12.095c.67-3.297 1.167-6.772 2.149-9.983.215-.698.692-1.96.338-2.625l-.248.099c-1.512 2.388-2.278 9.42-3.199 12.551-1.584-2.444-1.448-6.418-.853-9.169.592-2.74 1.916-5.719 4.375-7.261a12 12 0 0 1 .844-.473z"
                style="fill:var(--color5, #97a898)" />
            <path fill="#ebb19f"
                d="M12.133 5.003c1.117-1.653 1.774-2.392 3.701-2.948.634 1.335 1.189 2.664 1.601 4.086.233.802.64 3.8.987 4.245-1.231.248-2.086.909-2.771 1.949-.381.579-.68 1.24-.955 1.875-.305-.563-.799-1.258-.922-1.881.121-.179.104-.22.09-.44-.12-1.846-.991-3.187-2.347-4.379.071-.858.323-1.701.617-2.506z"
                style="fill:var(--color4, #ebb19f)" />
        </symbol>
        <symbol id="icon-Instagram" viewBox="0 0 32 32">
            <path
                d="M15.998 6.161c3.206 0 3.585.014 4.846.071 1.172.052 1.804.248 2.226.412.558.216.961.478 1.378.895.422.422.679.82.9 1.378.164.422.361 1.059.412 2.226.056 1.266.071 1.645.071 4.847s-.014 3.585-.071 4.847c-.052 1.172-.248 1.804-.412 2.227a3.7 3.7 0 0 1-.895 1.377c-.422.422-.82.679-1.378.9-.422.164-1.06.361-2.226.412-1.266.056-1.645.071-4.847.071s-3.585-.014-4.847-.071c-1.172-.052-1.804-.248-2.226-.412a3.7 3.7 0 0 1-1.378-.895 3.8 3.8 0 0 1-.9-1.378c-.164-.422-.361-1.06-.412-2.226-.056-1.266-.071-1.645-.071-4.847s.014-3.585.071-4.847c.052-1.172.248-1.804.412-2.226.216-.558.478-.961.895-1.378.422-.422.82-.679 1.378-.9.422-.164 1.059-.361 2.226-.412 1.261-.056 1.641-.071 4.847-.071zm0-2.16c-3.258 0-3.665.014-4.945.071-1.275.056-2.151.262-2.91.558a5.85 5.85 0 0 0-2.127 1.387A5.9 5.9 0 0 0 4.629 8.14c-.295.764-.502 1.636-.558 2.91C4.015 12.335 4 12.742 4 15.999s.014 3.665.071 4.945c.056 1.275.262 2.151.558 2.91a5.9 5.9 0 0 0 1.387 2.127 5.9 5.9 0 0 0 2.123 1.383c.764.295 1.636.502 2.91.558 1.279.056 1.687.071 4.945.071s3.666-.014 4.945-.071c1.275-.056 2.151-.262 2.91-.558.787-.305 1.458-.717 2.123-1.383s1.078-1.336 1.383-2.123c.295-.764.502-1.635.558-2.91.056-1.279.071-1.687.071-4.945s-.014-3.665-.071-4.945c-.056-1.275-.262-2.151-.558-2.91a5.6 5.6 0 0 0-1.373-2.133 5.9 5.9 0 0 0-2.123-1.383c-.764-.295-1.635-.502-2.91-.558-1.284-.061-1.692-.075-4.949-.075L15.999 4z" />
            <path
                d="M15.998 9.836a6.164 6.164 0 1 0 6.163 6.163 6.164 6.164 0 0 0-6.163-6.163m0 10.161a3.998 3.998 0 1 1 0-7.996 3.998 3.998 0 0 1 0 7.996M23.843 9.592a1.439 1.439 0 1 1-2.877 0 1.439 1.439 0 0 1 2.877 0" />
        </symbol>
        <symbol id="icon-left-arrow-alt" viewBox="0 0 32 32">
            <path d="m16.943 23.057-5.724-5.724H24v-2.667H11.219l5.724-5.724-1.885-1.885L6.115 16l8.943 8.943z" />
        </symbol>
        <symbol id="icon-map" viewBox="0 0 32 32">
            <path
                d="M16 18.667c2.941 0 5.333-2.392 5.333-5.333S18.941 8.001 16 8.001s-5.333 2.392-5.333 5.333 2.392 5.333 5.333 5.333m0-8c1.471 0 2.667 1.196 2.667 2.667S17.471 16.001 16 16.001s-2.667-1.196-2.667-2.667 1.196-2.667 2.667-2.667" />
            <path
                d="M15.227 29.085a1.33 1.33 0 0 0 1.546 0c.405-.287 9.932-7.165 9.893-15.752 0-5.881-4.785-10.667-10.667-10.667S5.332 7.451 5.332 13.326c-.039 8.593 9.488 15.472 9.893 15.759zM16 5.333c4.412 0 8 3.588 8 8.007.028 5.917-5.851 11.231-8 12.973-2.148-1.744-8.028-7.059-8-12.98 0-4.412 3.588-8 8-8" />
        </symbol>
        <symbol id="icon-menu" viewBox="0 0 32 32">
            <path d="M5.333 8h21.333v2.667H5.333zm0 6.667h21.333v2.667H5.333zm0 6.666h21.333V24H5.333z" />
        </symbol>
        <symbol id="icon-phone" viewBox="0 0 32 32">
            <path
                d="M23.61 16.391a1.34 1.34 0 0 0-.942-.391 1.33 1.33 0 0 0-.942.391l-2.125 2.125c-.985-.293-2.824-.96-3.989-2.125s-1.832-3.004-2.125-3.989l2.125-2.125a1.34 1.34 0 0 0 .391-.942 1.33 1.33 0 0 0-.391-.942L10.279 3.06a1.34 1.34 0 0 0-.942-.391 1.33 1.33 0 0 0-.942.391L4.779 6.676a2.66 2.66 0 0 0-.781 1.913c.031 1.899.533 8.493 5.731 13.691s11.792 5.699 13.692 5.731h.037c.704 0 1.369-.277 1.873-.781l3.616-3.616a1.34 1.34 0 0 0 .391-.942 1.33 1.33 0 0 0-.391-.942l-5.333-5.335zm-.17 8.949c-1.664-.028-7.357-.475-11.831-4.949C7.121 15.903 6.686 10.19 6.66 8.559l2.673-2.673 3.448 3.448-1.724 1.724a1.33 1.33 0 0 0-.362 1.216c.032.153.815 3.789 3.028 6.003s5.849 2.996 6.003 3.028a1.32 1.32 0 0 0 1.216-.361l1.725-1.724 3.448 3.448-2.675 2.673z" />
        </symbol>
        <symbol id="icon-right-arrow-alt" viewBox="0 0 32 32">
            <path d="m15.057 23.057 1.885 1.885 8.943-8.943-8.943-8.943-1.885 1.885 5.724 5.724H8v2.667h12.781z" />
        </symbol>
        <symbol id="icon-top-arrow-alt" viewBox="0 0 32 32">
            <path
                d="M24 17.885 25.885 16l-8.943-8.943L7.999 16l1.885 1.885 5.724-5.724v12.781h2.667V12.161l5.724 5.724z" />
        </symbol>
        <symbol id="icon-X" viewBox="0 0 32 32">
            <path
                d="M22.901 5.657h3.68l-8.04 9.037L28 26.991h-7.406l-5.801-7.458-6.637 7.458H4.474l8.6-9.666L4 5.657h7.594l5.243 6.817zM21.61 24.824h2.039L10.486 7.709H8.298z" />
        </symbol>
        <symbol id="icon-x-close" viewBox="0 0 32 32">
            <path
                d="m21.589 8.459-5.657 5.656-5.656-5.656-1.885 1.885L14.047 16l-5.656 5.656 1.885 1.885 5.656-5.656 5.657 5.656 1.885-1.885L17.818 16l5.656-5.656z" />
        </symbol>
    </defs>
</svg>